<svg width="512" height="512" viewBox="0 0 512 512" fill="none" xmlns="http://www.w3.org/2000/svg">
<path d="M206.54 206.41C174.14 238.81 174.14 291.53 206.54 323.93C222.74 340.13 244.02 348.23 265.3 348.23C286.58 348.23 307.86 340.13 324.06 323.93C356.46 291.53 356.46 238.81 324.06 206.41C291.66 174.01 238.94 174.01 206.54 206.41ZM315.57 315.44C301.71 329.3 283.51 336.23 265.3 336.23C247.1 336.23 228.88 329.3 215.03 315.44C187.31 287.72 187.31 242.61 215.03 214.89C228.89 201.03 247.09 194.1 265.3 194.1C283.5 194.1 301.71 201.03 315.57 214.89C343.3 242.61 343.3 287.72 315.57 315.44ZM461.68 125.09C442.2 125.09 426.36 140.93 426.36 160.41C426.36 165.38 427.4 170.11 429.26 174.41L369.06 213.7C368.21 211.98 367.32 210.27 366.38 208.6L381.4 192.61C384.45 189.36 384.38 184.34 381.22 181.18L349.29 149.25C346.13 146.1 341.11 146.02 337.86 149.07L321.88 164.09C313.94 159.64 305.51 156.15 296.74 153.69L296.08 131.77C295.95 127.31 292.34 123.81 287.87 123.81H242.72C238.25 123.81 234.65 127.31 234.51 131.77L233.85 153.69C225.07 156.16 216.63 159.65 208.69 164.11L192.73 149.08C189.48 146.02 184.45 146.09 181.29 149.25L169.57 160.97L114.5 105.9C119.06 99.9499 121.77 92.5199 121.77 84.4699C121.77 64.9899 105.93 49.1499 86.45 49.1499C66.97 49.1499 51.14 64.9799 51.14 84.4599C51.14 103.94 66.98 119.78 86.46 119.78C93.55 119.78 100.16 117.67 105.7 114.06L161.1 169.46L149.38 181.18C146.22 184.34 146.14 189.36 149.21 192.61L164.24 208.57C159.79 216.51 156.29 224.95 153.82 233.73L131.91 234.39C127.44 234.52 123.94 238.13 123.94 242.6V259.17H85.12C82.26 242.54 67.75 229.85 50.32 229.85C30.84 229.85 15 245.69 15 265.17C15 284.65 30.84 300.49 50.32 300.49C67.75 300.49 82.26 287.8 85.12 271.17H123.94V287.75C123.94 292.22 127.44 295.82 131.9 295.96L153.82 296.62C156.29 305.4 159.78 313.84 164.24 321.78L149.21 337.74C146.15 340.99 146.22 346.02 149.38 349.17L181.31 381.1C184.47 384.26 189.49 384.33 192.74 381.27L208.7 366.24C209.63 366.76 210.57 367.27 211.51 367.76L185.24 400.04C179.18 395.16 171.49 392.22 163.12 392.22C143.64 392.22 127.8 408.06 127.8 427.54C127.8 447.02 143.64 462.86 163.12 462.86C182.6 462.86 198.44 447.02 198.44 427.54C198.44 420.82 196.55 414.53 193.28 409.18L222.8 372.91C226.41 374.33 230.1 375.59 233.85 376.65L234.53 398.58C234.67 403.04 238.27 406.54 242.73 406.54H242.74H287.89C292.35 406.54 295.96 403.04 296.1 398.58L296.78 376.65C305.54 374.19 313.96 370.7 321.9 366.25L337.88 381.27C341.13 384.33 346.16 384.25 349.31 381.09L361.03 369.37L391.31 399.65C387.91 405.08 385.93 411.49 385.93 418.35C385.93 437.83 401.77 453.67 421.25 453.67C440.73 453.67 456.57 437.83 456.57 418.35C456.57 398.87 440.73 383.03 421.25 383.03C412.97 383.03 405.35 385.9 399.32 390.69L369.51 360.88L381.23 349.16C384.39 346 384.46 340.98 381.4 337.73L366.38 321.75C370.82 313.82 374.31 305.4 376.78 296.63L398.71 295.95C403.17 295.81 406.67 292.21 406.67 287.74V242.59C406.67 238.13 403.17 234.52 398.71 234.38L376.78 233.7C375.94 230.71 374.97 227.77 373.9 224.87L435.84 184.45C442.29 191.39 451.49 195.74 461.69 195.74C481.17 195.74 497.01 179.9 497.01 160.42C497.01 140.94 481.16 125.09 461.68 125.09ZM63.14 84.4599C63.14 71.5999 73.6 61.1399 86.46 61.1399C99.32 61.1399 109.78 71.5999 109.78 84.4599C109.78 97.3199 99.32 107.78 86.46 107.78C73.6 107.78 63.14 97.3199 63.14 84.4599ZM50.32 288.49C37.46 288.49 27 278.03 27 265.17C27 252.31 37.46 241.85 50.32 241.85C63.18 241.85 73.64 252.31 73.64 265.17C73.64 278.03 63.18 288.49 50.32 288.49ZM163.11 450.86C150.25 450.86 139.79 440.4 139.79 427.54C139.79 414.68 150.25 404.22 163.11 404.22C168.61 404.22 173.67 406.14 177.66 409.34L176.96 410.2L182.63 414.82C185.02 418.48 186.42 422.85 186.42 427.54C186.43 440.4 175.97 450.86 163.11 450.86ZM421.24 395.03C434.1 395.03 444.56 405.49 444.56 418.35C444.56 431.21 434.1 441.67 421.24 441.67C408.38 441.67 397.92 431.21 397.92 418.35C397.92 405.49 408.38 395.03 421.24 395.03ZM394.66 246.26V284.07L373.59 284.72C369.89 284.83 366.8 287.32 365.88 290.9C363.44 300.47 359.65 309.62 354.62 318.1C352.73 321.28 353.17 325.22 355.7 327.92L370.13 343.28L343.4 370.01L328.04 355.58C325.35 353.05 321.4 352.62 318.22 354.5C309.74 359.53 300.59 363.32 291.02 365.76C287.44 366.67 284.95 369.77 284.84 373.46L284.19 394.53H246.38L245.73 373.46C245.61 369.76 243.13 366.67 239.55 365.76C229.97 363.32 220.81 359.53 212.33 354.49C209.15 352.6 205.2 353.03 202.51 355.57L187.19 370L160.46 343.27L174.9 327.94C177.43 325.25 177.87 321.3 175.98 318.12C170.94 309.62 167.14 300.46 164.7 290.87C163.79 287.29 160.69 284.8 156.99 284.69L135.93 284.06V246.26L156.99 245.63C160.69 245.52 163.79 243.03 164.7 239.45C167.14 229.86 170.94 220.69 175.98 212.2C177.87 209.02 177.43 205.07 174.9 202.38L160.46 187.05L187.19 160.32L202.52 174.76C205.21 177.3 209.16 177.73 212.34 175.84C220.84 170.79 230 167 239.59 164.56C243.17 163.64 245.65 160.55 245.77 156.85L246.4 135.79H284.2L284.83 156.85C284.94 160.55 287.42 163.65 291.01 164.56C300.59 167 309.75 170.79 318.23 175.82C321.41 177.71 325.35 177.27 328.05 174.74L343.41 160.31L370.14 187.04L355.7 202.4C353.17 205.09 352.74 209.04 354.62 212.21C359.65 220.69 363.44 229.84 365.88 239.41C366.79 242.99 369.89 245.48 373.58 245.59L394.66 246.26ZM461.68 183.73C448.82 183.73 438.36 173.27 438.36 160.41C438.36 147.55 448.82 137.09 461.68 137.09C474.54 137.09 485 147.55 485 160.41C485 173.27 474.54 183.73 461.68 183.73ZM230.88 237.46C220.19 237.46 211.5 246.15 211.5 256.84V286.88C211.5 290.19 214.19 292.88 217.5 292.88C220.81 292.88 223.5 290.19 223.5 286.88V277.86H238.26V286.88C238.26 290.19 240.95 292.88 244.26 292.88C247.57 292.88 250.26 290.19 250.26 286.88V256.84C250.26 246.15 241.56 237.46 230.88 237.46ZM223.49 265.86V256.84C223.49 252.77 226.8 249.46 230.87 249.46C234.94 249.46 238.25 252.77 238.25 256.84V265.86H223.49ZM283.57 237.46H267.27C263.96 237.46 261.27 240.15 261.27 243.46V286.88C261.27 290.19 263.96 292.88 267.27 292.88C270.58 292.88 273.27 290.19 273.27 286.88V271.17H283.57C292.86 271.17 300.42 263.61 300.42 254.32C300.42 245.03 292.86 237.46 283.57 237.46ZM283.57 259.17H273.27V249.46H283.57C286.25 249.46 288.42 251.64 288.42 254.31C288.42 256.98 286.25 259.17 283.57 259.17ZM313.11 237.46C316.42 237.46 319.11 240.15 319.11 243.46V286.88C319.11 290.19 316.42 292.88 313.11 292.88C309.8 292.88 307.11 290.19 307.11 286.88V243.46C307.11 240.14 309.79 237.46 313.11 237.46Z" fill="url(#paint0_linear_762_100)"/>
<defs>
<linearGradient id="paint0_linear_762_100" x1="256" y1="49.1389" x2="256" y2="462.861" gradientUnits="userSpaceOnUse">
<stop stop-color="#FFDB6E"/>
<stop offset="1" stop-color="#FFBC5E"/>
</linearGradient>
</defs>
</svg>
