<svg width="800" height="800" viewBox="0 0 800 800" fill="none" xmlns="http://www.w3.org/2000/svg">
<path d="M744.209 197.583H545.02V162.816C545.02 127.52 516.305 98.8047 481.009 98.8047H318.991C283.695 98.8047 254.98 127.52 254.98 162.816V197.583H55.7906C25.0281 197.583 0 222.611 0 253.372V645.403C0 676.167 25.0281 701.194 55.7906 701.194H744.208C774.972 701.194 799.998 676.166 799.998 645.403V253.372C800 222.611 774.972 197.583 744.209 197.583ZM286.853 162.816C286.853 145.094 301.27 130.677 318.992 130.677H481.009C498.73 130.677 513.148 145.094 513.148 162.816V197.583H286.853V162.816ZM768.128 645.405C768.128 658.594 757.398 669.323 744.209 669.323H55.7906C42.6016 669.323 31.8719 658.595 31.8719 645.405V337.888L276.55 456.563C281.509 486.806 307.819 509.959 339.442 509.959H460.558C492.181 509.959 518.491 486.806 523.45 456.563L676.277 382.434C684.195 378.594 687.5 369.061 683.659 361.142C679.82 353.222 670.288 349.916 662.367 353.759L519.859 422.881C510.525 399.244 487.47 382.47 460.558 382.47H339.442C312.53 382.47 289.473 399.245 280.141 422.881L31.8719 302.464V253.372C31.8719 240.184 42.6016 229.455 55.7906 229.455H744.208C757.395 229.455 768.127 240.183 768.127 253.372L768.128 645.405ZM307.57 446.216C307.57 428.641 321.869 414.344 339.442 414.344H460.558C478.133 414.344 492.43 428.642 492.43 446.216C492.43 463.789 478.131 478.088 460.558 478.088H339.442C321.867 478.088 307.57 463.789 307.57 446.216Z" fill="url(#paint0_linear_761_6)"/>
<path d="M746.028 330.895C742.189 322.974 732.655 319.672 724.736 323.51L714.958 328.252C707.038 332.092 703.733 341.627 707.572 349.544C710.327 355.224 716.008 358.53 721.922 358.53C724.255 358.53 726.625 358.017 728.864 356.93L738.642 352.188C746.563 348.347 749.867 338.813 746.028 330.895Z" fill="#FFBC5E"/>
<defs>
<linearGradient id="paint0_linear_761_6" x1="399.999" y1="98.8047" x2="399.999" y2="701.194" gradientUnits="userSpaceOnUse">
<stop stop-color="#FFDB6E"/>
<stop offset="1" stop-color="#FFBC5E"/>
</linearGradient>
</defs>
</svg>
