<svg width="510" height="510" viewBox="0 0 510 510" fill="none" xmlns="http://www.w3.org/2000/svg">
<path fill-rule="evenodd" clip-rule="evenodd" d="M440.372 229.42C440.396 228.161 440.408 226.899 440.408 225.635C440.408 116.713 351.977 28.2832 243.056 28.2832C134.134 28.2832 45.7041 116.713 45.7041 225.635C45.7041 329.379 125.926 414.537 227.67 422.395C232.072 422.735 235.37 426.585 235.03 430.987C234.69 435.389 230.84 438.687 226.438 438.347C116.441 429.853 29.7041 337.794 29.7041 225.635C29.7041 107.882 125.304 12.2832 243.056 12.2832C360.808 12.2832 456.408 107.882 456.408 225.635C456.408 226.674 456.4 227.711 456.386 228.747L466.42 217.88C469.416 214.636 474.481 214.435 477.725 217.43C480.969 220.425 481.17 225.491 478.175 228.735L454.159 254.743C452.659 256.367 450.555 257.298 448.344 257.315C446.134 257.333 444.015 256.435 442.49 254.835L418.727 229.898C415.681 226.702 415.803 221.634 418.999 218.588C422.195 215.542 427.263 215.664 430.309 218.86L440.372 229.42Z" fill="url(#paint0_linear_762_77)"/>
<path fill-rule="evenodd" clip-rule="evenodd" d="M355.389 118.47V336.509C355.389 356.241 305.099 372.268 243.057 372.268C181.014 372.268 130.725 356.241 130.725 336.509V118.47C130.725 98.7392 181.014 82.7832 243.057 82.7832C305.099 82.7832 355.389 98.7392 355.389 118.47Z" fill="#FFE177"/>
<path fill-rule="evenodd" clip-rule="evenodd" d="M243.057 226.884C305.099 226.884 355.389 210.929 355.389 191.198V118.47C355.389 138.273 305.099 154.228 243.057 154.228C200.104 154.228 162.779 146.607 143.903 135.281C139.629 132.788 136.352 130.081 134.144 127.232C131.936 124.454 130.725 121.533 130.725 118.47V191.198C130.725 191.839 130.796 192.48 130.868 193.121C134.073 211.926 183.08 226.884 243.057 226.884Z" fill="#FFD064"/>
<path fill-rule="evenodd" clip-rule="evenodd" d="M243.057 299.612C181.014 299.612 130.725 283.585 130.725 263.853V336.509C130.725 356.241 181.014 372.268 243.057 372.268C305.099 372.268 355.389 356.241 355.389 336.509V263.853C355.389 283.585 305.099 299.612 243.057 299.612Z" fill="#FFD064"/>
<g clip-path="url(#clip0_762_77)">
<path fill-rule="evenodd" clip-rule="evenodd" d="M470.431 351.831C471.166 355.62 471.622 359.476 471.805 363.368C471.988 367.26 471.888 371.15 471.511 375.005C471.213 378.062 469.834 380.76 467.76 382.731C465.689 384.701 462.923 385.942 459.852 386.086C456.885 386.225 453.99 387.151 451.478 388.763C449.07 390.309 447.019 392.498 445.606 395.242C444.192 397.987 443.6 400.929 443.74 403.789C443.886 406.77 444.814 409.666 446.425 412.163C448.093 414.748 448.686 417.728 448.281 420.57C447.876 423.408 446.475 426.101 444.154 428.115C442.699 429.377 441.195 430.591 439.644 431.752C438.099 432.91 436.503 434.019 434.857 435.078C434.812 435.106 434.767 435.134 434.72 435.159C433.056 436.225 431.436 437.188 429.862 438.048C428.155 438.981 426.424 439.847 424.672 440.647C421.874 441.926 418.839 442.083 416.085 441.273C413.336 440.464 410.872 438.688 409.211 436.097C407.601 433.585 405.355 431.537 402.714 430.173C400.162 428.855 397.239 428.17 394.162 428.316L394.162 428.321C391.077 428.469 388.233 429.427 385.826 430.977C383.322 432.59 381.279 434.844 379.917 437.496C378.513 440.227 376.236 442.227 373.581 443.296C370.923 444.366 367.894 444.504 364.994 443.509C361.359 442.262 357.778 440.736 354.283 438.94C350.83 437.166 347.513 435.152 344.364 432.906C341.859 431.12 340.206 428.571 339.533 425.782C338.86 422.996 339.167 419.977 340.58 417.247C341.951 414.596 342.602 411.622 342.463 408.646C342.329 405.784 341.458 402.909 339.786 400.309C338.117 397.715 335.863 395.731 333.31 394.42C330.666 393.062 327.693 392.422 324.712 392.57C321.639 392.723 318.763 391.75 316.507 389.982C314.249 388.212 312.615 385.651 312.029 382.631C311.293 378.842 310.837 374.985 310.655 371.093C310.472 367.201 310.572 363.311 310.948 359.456C311.246 356.4 312.626 353.702 314.699 351.73C316.771 349.76 319.536 348.519 322.608 348.375C325.574 348.236 328.469 347.31 330.981 345.698C333.389 344.152 335.44 341.963 336.854 339.219C338.268 336.474 338.86 333.532 338.72 330.673C338.574 327.691 337.645 324.795 336.034 322.298C334.367 319.714 333.774 316.733 334.179 313.891C334.583 311.053 335.984 308.36 338.305 306.347C339.76 305.084 341.264 303.87 342.815 302.709C344.36 301.551 345.956 300.442 347.602 299.384C347.647 299.355 347.693 299.327 347.739 299.302C349.403 298.236 351.023 297.273 352.598 296.413C354.304 295.48 356.035 294.614 357.787 293.814C360.585 292.536 363.62 292.378 366.374 293.188C369.123 293.997 371.587 295.773 373.248 298.365C374.858 300.876 377.104 302.925 379.745 304.288C382.297 305.606 385.22 306.291 388.297 306.145L388.297 306.14C391.382 305.992 394.227 305.034 396.633 303.484C399.136 301.871 401.18 299.617 402.542 296.965C403.945 294.235 406.223 292.234 408.878 291.165C411.536 290.095 414.564 289.957 417.464 290.952C421.1 292.2 424.681 293.725 428.177 295.521C431.629 297.295 434.946 299.309 438.095 301.555C440.6 303.341 442.252 305.891 442.926 308.679C443.598 311.465 443.291 314.484 441.879 317.214C440.508 319.865 439.856 322.839 439.996 325.816C440.129 328.678 441.001 331.552 442.672 334.152C444.341 336.747 446.596 338.731 449.148 340.042C451.792 341.4 454.766 342.039 457.747 341.891C460.819 341.738 463.695 342.712 465.951 344.479C468.21 346.249 469.844 348.81 470.431 351.831ZM414.654 372.317C415.957 366.321 414.972 359.828 411.391 354.261L411.396 354.258C407.816 348.696 402.316 345.109 396.316 343.806C390.32 342.504 383.827 343.488 378.259 347.069L378.257 347.065C372.695 350.644 369.108 356.145 367.805 362.145C366.502 368.141 367.487 374.633 371.068 380.201L371.064 380.204C374.643 385.765 380.144 389.352 386.143 390.656C392.139 391.958 398.632 390.973 404.2 387.392L404.202 387.397C409.764 383.817 413.351 378.317 414.654 372.317Z" fill="#FFE177"/>
<path fill-rule="evenodd" clip-rule="evenodd" d="M470.431 351.831C471.167 355.62 471.623 359.476 471.806 363.368C471.988 367.26 471.888 371.15 471.512 375.005C471.214 378.062 469.835 380.76 467.761 382.731C465.689 384.701 462.924 385.942 459.853 386.086C458.771 386.137 457.699 386.292 456.651 386.547C458.511 385.988 460.179 385.005 461.546 383.706C463.62 381.734 465 379.036 465.297 375.98C465.673 372.125 465.774 368.235 465.591 364.342C465.408 360.451 464.952 356.595 464.217 352.805C463.63 349.785 461.996 347.224 459.738 345.454C457.482 343.686 454.606 342.713 451.534 342.865C448.552 343.013 445.579 342.374 442.935 341.016C440.382 339.705 438.128 337.721 436.459 335.126C434.787 332.527 433.916 329.652 433.782 326.79C433.643 323.813 434.295 320.839 435.666 318.188C437.078 315.459 437.385 312.439 436.713 309.653C436.039 306.865 434.387 304.315 431.882 302.529C428.733 300.283 425.416 298.269 421.964 296.495C418.468 294.699 414.887 293.174 411.251 291.926C410.345 291.616 409.428 291.415 408.512 291.319C408.634 291.266 408.756 291.214 408.879 291.164C411.537 290.094 414.565 289.956 417.466 290.952C421.101 292.199 424.682 293.724 428.178 295.521C431.63 297.295 434.947 299.308 438.096 301.554C440.601 303.34 442.254 305.89 442.927 308.678C443.6 311.464 443.293 314.484 441.88 317.213C440.509 319.864 439.858 322.838 439.997 325.815C440.131 328.677 441.002 331.552 442.674 334.151C444.342 336.746 446.597 338.73 449.15 340.041C451.794 341.399 454.767 342.039 457.748 341.89C460.821 341.738 463.697 342.711 465.953 344.479C468.211 346.249 469.845 348.81 470.431 351.831ZM455.913 386.745C454.354 387.199 452.858 387.878 451.479 388.763C449.071 390.309 447.02 392.499 445.606 395.243C444.192 397.988 443.6 400.929 443.74 403.789C443.886 406.771 444.815 409.666 446.426 412.163C448.093 414.748 448.686 417.728 448.281 420.57C447.876 423.408 446.475 426.101 444.155 428.115C442.7 429.377 441.196 430.591 439.645 431.753C438.1 432.91 436.504 434.02 434.858 435.078C434.813 435.107 434.767 435.134 434.721 435.16C433.057 436.226 431.437 437.188 429.862 438.049C428.156 438.981 426.425 439.847 424.673 440.648C422.599 441.595 420.395 441.927 418.272 441.705C418.334 441.678 418.396 441.65 418.458 441.622C420.21 440.822 421.941 439.956 423.647 439.023C425.222 438.163 426.842 437.2 428.506 436.134C428.552 436.109 428.598 436.081 428.643 436.053C430.289 434.994 431.884 433.885 433.43 432.727C434.981 431.566 436.484 430.352 437.939 429.09C440.26 427.076 441.661 424.383 442.066 421.545C442.471 418.703 441.878 415.723 440.211 413.138C438.599 410.641 437.671 407.745 437.525 404.764C437.385 401.904 437.977 398.962 439.391 396.217C440.805 393.473 442.855 391.284 445.264 389.738C447.776 388.126 450.671 387.2 453.637 387.061C454.418 387.024 455.178 386.917 455.913 386.745ZM389.281 429.28C388.054 429.716 386.897 430.288 385.827 430.978C383.323 432.591 381.28 434.845 379.917 437.497C378.514 440.227 376.236 442.228 373.581 443.297C371.753 444.033 369.75 444.328 367.734 444.117C370.231 443.015 372.364 441.075 373.703 438.471C375.065 435.82 377.108 433.566 379.612 431.953C382.019 430.402 384.863 429.444 387.948 429.296L387.948 429.291C388.396 429.27 388.84 429.266 389.281 429.28ZM319.595 348.889C319.838 348.816 320.084 348.75 320.333 348.691C320.089 348.763 319.843 348.829 319.595 348.889ZM357.973 293.731C360.72 292.53 363.682 292.396 366.375 293.188C369.124 293.997 371.587 295.773 373.248 298.365C374.858 300.876 377.105 302.924 379.745 304.288C381.926 305.415 384.378 306.078 386.965 306.157C385.434 306.701 383.796 307.033 382.083 307.115L382.083 307.12C379.006 307.266 376.083 306.581 373.531 305.263C370.891 303.899 368.644 301.851 367.034 299.339C365.373 296.748 362.909 294.972 360.16 294.163C359.447 293.953 358.715 293.809 357.973 293.731ZM384.427 344.238C380.171 344.338 375.888 345.572 372.045 348.043L372.043 348.039C366.481 351.619 362.894 357.119 361.591 363.119C360.289 369.115 361.273 375.608 364.854 381.176L364.85 381.178C368.429 386.74 373.93 390.327 379.929 391.63C383.813 392.474 387.905 392.357 391.819 391.198C389.908 391.243 388.002 391.059 386.144 390.655C380.144 389.352 374.644 385.765 371.064 380.203L371.068 380.201C367.488 374.633 366.503 368.14 367.805 362.144C369.109 356.145 372.696 350.644 378.257 347.065L378.26 347.069C380.222 345.807 382.298 344.869 384.427 344.238Z" fill="#E6BD5C"/>
</g>
<defs>
<linearGradient id="paint0_linear_762_77" x1="255" y1="12.2832" x2="255" y2="438.371" gradientUnits="userSpaceOnUse">
<stop stop-color="#FFDB6E"/>
<stop offset="1" stop-color="#FFBC5E"/>
</linearGradient>
<clipPath id="clip0_762_77">
<rect width="166.646" height="166.646" fill="white" transform="translate(355.315 255) rotate(27.255)"/>
</clipPath>
</defs>
</svg>
