<svg width="512" height="512" viewBox="0 0 512 512" fill="none" xmlns="http://www.w3.org/2000/svg">
<path d="M334 57.959C328.478 57.959 324 62.466 324 67.989C324 73.512 328.478 77.99 334 77.99C339.522 77.99 344 73.513 344 67.99V67.929C344 62.406 339.523 57.959 334 57.959Z" fill="#FFBC5E"/>
<path d="M295.542 41.572C270.477 37.333 237.612 35 203 35C197.478 35 193 39.477 193 45C193 50.523 197.478 55 203 55C236.528 55 268.209 57.234 292.206 61.291C292.77 61.387 293.331 61.433 293.885 61.433C298.675 61.433 302.908 57.979 303.734 53.099C304.654 47.653 300.987 42.493 295.542 41.572Z" fill="#FFBC5E"/>
<path d="M446 383.999C440.478 383.999 436 388.476 436 393.999C436 405.218 431.631 415.765 423.698 423.697C407.323 440.073 380.677 440.073 364.302 423.697C356.369 415.765 352 405.218 352 393.999C352 382.78 356.368 372.233 364.302 364.3C372.847 355.755 384.674 351.299 396.744 352.088C402.229 352.438 407.014 348.269 407.371 342.758C407.729 337.247 403.553 332.488 398.041 332.13C380.237 330.969 362.773 337.542 350.159 350.158C338.449 361.868 332 377.438 332 393.999C332 410.56 338.449 426.129 350.159 437.84C362.246 449.927 378.123 455.97 394 455.97C409.877 455.97 425.754 449.927 437.841 437.84C449.551 426.13 456 410.56 456 393.999C456 388.476 451.523 383.999 446 383.999Z" fill="#FFBC5E"/>
<path d="M437.872 350.188L437.713 350.029L430.595 357.053L437.666 349.982C433.76 346.077 427.43 346.077 423.523 349.982C419.618 353.887 419.618 360.219 423.523 364.125C423.53 364.132 423.662 364.263 423.67 364.271C425.625 366.243 428.197 367.229 430.771 367.229C433.317 367.229 435.863 366.263 437.813 364.33C441.734 360.441 441.76 354.109 437.872 350.188Z" fill="#FFBC5E"/>
<path d="M504.417 367.818L489.9 364.202L482.879 347.262L490.581 334.448C492.947 330.512 492.329 325.472 489.082 322.225L465.774 298.917C462.526 295.67 457.486 295.051 453.55 297.418L440.737 305.121L423.797 298.1L420.18 283.582C419.071 279.126 415.069 275.999 410.477 275.999H406V67.99C406 47.41 383.99 29.92 342.35 17.408C304.989 6.182 255.5 0 203 0C150.5 0 101.013 6.182 63.651 17.408C22.01 29.919 0 47.41 0 67.99V444.01C0 464.59 22.01 482.08 63.65 494.592C101.013 505.818 150.5 512 203 512C225.181 512 246.956 510.895 267.722 508.715C273.215 508.138 277.2 503.218 276.623 497.726C276.047 492.232 271.112 488.247 265.634 488.825C245.56 490.932 224.485 492 203 492C152.396 492 104.951 486.118 69.406 475.438C32.94 464.481 20 451.66 20 444.01V349.796C30.541 357.153 45.154 363.695 63.65 369.252C101.013 380.478 150.5 386.66 203 386.66C218.327 386.66 233.597 386.126 248.384 385.073C253.893 384.681 258.041 379.897 257.649 374.388C257.257 368.879 252.446 364.727 246.964 365.124C232.648 366.143 217.856 366.66 203 366.66C152.396 366.66 104.951 360.778 69.406 350.098C32.94 339.141 20 326.32 20 318.67V224.455C30.542 231.812 45.155 238.354 63.651 243.911C101.011 255.137 150.5 261.319 203 261.319C255.5 261.319 304.988 255.137 342.349 243.911C360.846 238.353 375.459 231.811 386 224.455V275.999H377.522C372.93 275.999 368.928 279.126 367.819 283.582L364.202 298.1L347.262 305.121L334.449 297.418C330.514 295.051 325.472 295.67 322.225 298.917L298.917 322.225C295.67 325.472 295.052 330.513 297.418 334.448L305.12 347.262L298.099 364.202L283.582 367.818C279.126 368.928 275.999 372.93 275.999 377.522V410.477C275.999 415.069 279.126 419.07 283.581 420.18L298.099 423.797L305.12 440.737L297.417 453.552C295.052 457.488 295.671 462.528 298.917 465.775L322.225 489.082C325.473 492.329 330.514 492.946 334.449 490.582L347.262 482.879L364.202 489.9L367.819 504.418C368.928 508.874 372.93 512.001 377.522 512.001H410.477C415.069 512.001 419.071 508.874 420.18 504.418L423.797 489.9L440.737 482.879L453.55 490.582C457.485 492.947 462.527 492.33 465.774 489.082L489.082 465.775C492.328 462.528 492.947 457.487 490.582 453.552L482.879 440.737L489.9 423.797L504.418 420.18C508.873 419.07 512 415.069 512 410.477V377.522C512 372.93 508.873 368.928 504.417 367.818ZM69.406 36.562C104.951 25.882 152.396 20 203 20C253.604 20 301.049 25.882 336.594 36.562C373.062 47.519 386 60.34 386 67.99C386 75.64 373.061 88.461 336.594 99.417C301.049 110.097 253.605 115.979 203 115.979C152.395 115.979 104.951 110.097 69.406 99.417C32.94 88.46 20 75.64 20 67.99C20 60.34 32.94 47.519 69.406 36.562ZM336.594 224.757C301.049 235.437 253.605 241.319 203 241.319C152.395 241.319 104.951 235.437 69.406 224.757C32.94 213.801 20 200.98 20 193.33V99.115C30.542 106.472 45.155 113.014 63.651 118.571C101.011 129.797 150.5 135.979 203 135.979C255.5 135.979 304.988 129.797 342.349 118.571C360.846 113.013 375.459 106.471 386 99.115V193.33C386 200.98 373.062 213.801 336.594 224.757ZM492 402.662L480.174 405.609C477.098 406.375 474.568 408.555 473.354 411.484L462.473 437.739C461.259 440.669 461.506 444.001 463.141 446.719L469.415 457.158L457.159 469.414L446.721 463.139C444.004 461.506 440.67 461.258 437.741 462.472L411.485 473.352C408.556 474.566 406.376 477.097 405.61 480.173L402.664 491.999H385.338L382.392 480.173C381.626 477.097 379.446 474.566 376.517 473.352L350.261 462.472C347.328 461.257 343.997 461.506 341.281 463.139L330.843 469.414L318.587 457.158L324.861 446.719C326.496 444.001 326.743 440.669 325.529 437.739L314.648 411.484C313.434 408.555 310.904 406.376 307.828 405.609L296 402.662V385.336L307.825 382.39C310.901 381.623 313.432 379.444 314.646 376.515L325.527 350.26C326.741 347.33 326.494 343.998 324.859 341.28L318.585 330.841L330.841 318.585L341.279 324.86C343.996 326.494 347.329 326.744 350.259 325.528L376.515 314.647C379.444 313.433 381.624 310.902 382.39 307.826L385.337 296H402.663L405.609 307.826C406.375 310.902 408.555 313.433 411.484 314.647L437.74 325.528C440.669 326.742 444.003 326.493 446.72 324.86L457.158 318.585L469.414 330.841L463.14 341.28C461.505 343.998 461.258 347.33 462.472 350.26L473.353 376.515C474.567 379.444 477.098 381.623 480.174 382.39L492 385.336V402.662Z" fill="url(#paint0_linear_762_104)"/>
<defs>
<linearGradient id="paint0_linear_762_104" x1="256" y1="0" x2="256" y2="512.001" gradientUnits="userSpaceOnUse">
<stop stop-color="#FFDB6E"/>
<stop offset="1" stop-color="#FFBC5E"/>
</linearGradient>
</defs>
</svg>
